TITLE ""
FILE "1Q_t_0920-0929.mp3" MP3
  TRACK 01 AUDIO
    TITLE "1Q_t_0920-0929_01"
    INDEX 01 00:00:00
  TRACK 02 AUDIO
    TITLE "1Q_t_0920-0929_02"
    INDEX 01 00:01:16
  TRACK 03 AUDIO
    TITLE "1Q_t_0920-0929_03"
    INDEX 01 00:01:23
  TRACK 04 AUDIO
    TITLE "1Q_t_0920-0929_04"
    INDEX 01 00:04:39
  TRACK 05 AUDIO
    TITLE "1Q_t_0920-0929_05"
    INDEX 01 00:04:47
  TRACK 06 AUDIO
    TITLE "1Q_t_0920-0929_06"
    INDEX 01 00:09:72
  TRACK 07 AUDIO
    TITLE "1Q_t_0920-0929_07"
    INDEX 01 00:10:42
  TRACK 08 AUDIO
    TITLE "1Q_t_0920-0929_08"
    INDEX 01 00:11:55
  TRACK 09 AUDIO
    TITLE "1Q_t_0920-0929_09"
    INDEX 01 00:11:65
  TRACK 10 AUDIO
    TITLE "1Q_t_0920-0929_10"
    INDEX 01 00:15:02
  TRACK 11 AUDIO
    TITLE "1Q_t_0920-0929_11"
    INDEX 01 00:15:10
  TRACK 12 AUDIO
    TITLE "1Q_t_0920-0929_12"
    INDEX 01 00:18:73
  TRACK 13 AUDIO
    TITLE "1Q_t_0920-0929_13"
    INDEX 01 00:19:43
  TRACK 14 AUDIO
    TITLE "1Q_t_0920-0929_14"
    INDEX 01 00:20:48
  TRACK 15 AUDIO
    TITLE "1Q_t_0920-0929_15"
    INDEX 01 00:20:58
  TRACK 16 AUDIO
    TITLE "1Q_t_0920-0929_16"
    INDEX 01 00:24:26
  TRACK 17 AUDIO
    TITLE "1Q_t_0920-0929_17"
    INDEX 01 00:24:32
  TRACK 18 AUDIO
    TITLE "1Q_t_0920-0929_18"
    INDEX 01 00:29:20
  TRACK 19 AUDIO
    TITLE "1Q_t_0920-0929_19"
    INDEX 01 00:29:67
  TRACK 20 AUDIO
    TITLE "1Q_t_0920-0929_20"
    INDEX 01 00:31:03
  TRACK 21 AUDIO
    TITLE "1Q_t_0920-0929_21"
    INDEX 01 00:31:13
  TRACK 22 AUDIO
    TITLE "1Q_t_0920-0929_22"
    INDEX 01 00:32:20
  TRACK 23 AUDIO
    TITLE "1Q_t_0920-0929_23"
    INDEX 01 00:32:28
  TRACK 24 AUDIO
    TITLE "1Q_t_0920-0929_24"
    INDEX 01 00:36:16
  TRACK 25 AUDIO
    TITLE "1Q_t_0920-0929_25"
    INDEX 01 00:36:63
  TRACK 26 AUDIO
    TITLE "1Q_t_0920-0929_26"
    INDEX 01 00:38:17
  TRACK 27 AUDIO
    TITLE "1Q_t_0920-0929_27"
    INDEX 01 00:38:25
  TRACK 28 AUDIO
    TITLE "1Q_t_0920-0929_28"
    INDEX 01 00:40:25
  TRACK 29 AUDIO
    TITLE "1Q_t_0920-0929_29"
    INDEX 01 00:40:31
  TRACK 30 AUDIO
    TITLE "1Q_t_0920-0929_30"
    INDEX 01 00:44:70
  TRACK 31 AUDIO
    TITLE "1Q_t_0920-0929_31"
    INDEX 01 00:45:40
  TRACK 32 AUDIO
    TITLE "1Q_t_0920-0929_32"
    INDEX 01 00:46:36
  TRACK 33 AUDIO
    TITLE "1Q_t_0920-0929_33"
    INDEX 01 00:46:48
  TRACK 34 AUDIO
    TITLE "1Q_t_0920-0929_34"
    INDEX 01 00:48:01
  TRACK 35 AUDIO
    TITLE "1Q_t_0920-0929_35"
    INDEX 01 00:48:09
  TRACK 36 AUDIO
    TITLE "1Q_t_0920-0929_36"
    INDEX 01 00:52:31
  TRACK 37 AUDIO
    TITLE "1Q_t_0920-0929_37"
    INDEX 01 00:53:03
  TRACK 38 AUDIO
    TITLE "1Q_t_0920-0929_38"
    INDEX 01 00:54:22
  TRACK 39 AUDIO
    TITLE "1Q_t_0920-0929_39"
    INDEX 01 00:54:30
  TRACK 40 AUDIO
    TITLE "1Q_t_0920-0929_40"
    INDEX 01 00:57:32
  TRACK 41 AUDIO
    TITLE "1Q_t_0920-0929_41"
    INDEX 01 00:57:40
  TRACK 42 AUDIO
    TITLE "1Q_t_0920-0929_42"
    INDEX 01 01:03:05
  TRACK 43 AUDIO
    TITLE "1Q_t_0920-0929_43"
    INDEX 01 01:03:50
  TRACK 44 AUDIO
    TITLE "1Q_t_0920-0929_44"
    INDEX 01 01:04:69
  TRACK 45 AUDIO
    TITLE "1Q_t_0920-0929_45"
    INDEX 01 01:05:02
  TRACK 46 AUDIO
    TITLE "1Q_t_0920-0929_46"
    INDEX 01 01:06:50
  TRACK 47 AUDIO
    TITLE "1Q_t_0920-0929_47"
    INDEX 01 01:06:56
  TRACK 48 AUDIO
    TITLE "1Q_t_0920-0929_48"
    INDEX 01 01:12:31
  TRACK 49 AUDIO
    TITLE "1Q_t_0920-0929_49"
    INDEX 01 01:13:01
  TRACK 50 AUDIO
    TITLE "1Q_t_0920-0929_50"
    INDEX 01 01:14:22
  TRACK 51 AUDIO
    TITLE "1Q_t_0920-0929_51"
    INDEX 01 01:14:30
  TRACK 52 AUDIO
    TITLE "1Q_t_0920-0929_52"
    INDEX 01 01:16:33
  TRACK 53 AUDIO
    TITLE "1Q_t_0920-0929_53"
    INDEX 01 01:16:39
  TRACK 54 AUDIO
    TITLE "1Q_t_0920-0929_54"
    INDEX 01 01:19:39
  TRACK 55 AUDIO
    TITLE "1Q_t_0920-0929_55"
    INDEX 01 01:20:11
  TRACK 56 AUDIO
    TITLE "1Q_t_0920-0929_56"
    INDEX 01 01:21:21
  TRACK 57 AUDIO
    TITLE "1Q_t_0920-0929_57"
    INDEX 01 01:21:30
  TRACK 58 AUDIO
    TITLE "1Q_t_0920-0929_58"
    INDEX 01 01:22:53
  TRACK 59 AUDIO
    TITLE "1Q_t_0920-0929_59"
    INDEX 01 01:22:59
  TRACK 60 AUDIO
    TITLE "1Q_t_0920-0929_60"
    INDEX 01 01:28:05
